Coordinates
version=1
nRows=26
nColumns=22
inDegrees=yes

Units are S.I. units (second, meters, Newtons, ...)
If the header above contains a line with 'inDegrees', this indicates whether rotational values are in degrees (yes) or radians (no).

endheader
time	pelvis_tilt	pelvis_list	pelvis_rotation	pelvis_tx	pelvis_ty	pelvis_tz	hip_flexion_r	hip_adduction_r	hip_rotation_r	knee_angle_r	ankle_angle_r	subtalar_angle_r	hip_flexion_l	hip_adduction_l	hip_rotation_l	knee_angle_l	ankle_angle_l	subtalar_angle_l	lumbar_extension	lumbar_bending	lumbar_rotation
      0.01000000	      1.33539002	     -3.01568764	     -5.12705720	      1.12181647	      0.92517888	      0.14858332	     -4.13844247	      2.77295748	      1.74804676	     -5.54429757	      4.02094788	      0.92666541	     -3.54298576	     -4.93486223	    -12.00693806	    -10.15409931	      8.89068737	     -0.19021905	     -5.88351471	     -0.40144415	      2.68255518
      0.02000000	      1.33668674	     -3.01520251	     -5.12724285	      1.12178274	      0.92517992	      0.14859479	     -4.13813661	      2.77279913	      1.74813135	     -5.54379460	      4.02075992	      0.92670777	     -3.54232697	     -4.93518559	    -12.00687200	    -10.15377463	      8.89094702	     -0.19021820	     -5.88341172	     -0.40128953	      2.68228575
      0.03000000	      1.33643857	     -3.01424525	     -5.13021378	      1.12171733	      0.92518247	      0.14861387	     -4.13578762	      2.77238021	      1.75067700	     -5.53821670	      4.01880568	      0.92720304	     -3.53856324	     -4.93522033	    -12.00620970	    -10.15251494	      8.89315184	     -0.19016940	     -5.88943536	     -0.40175746	      2.67840183
      0.04000000	      1.33827310	     -3.01346062	     -5.13047129	      1.12167090	      0.92518485	      0.14863219	     -4.13556194	      2.77214964	      1.75111282	     -5.53767709	      4.01860965	      0.92725368	     -3.53767133	     -4.93577024	    -12.00612040	    -10.15213699	      8.89332020	     -0.19016926	     -5.88901835	     -0.40139593	      2.67803381
      0.05000000	      1.33755672	     -3.01070041	     -5.13194942	      1.12158732	      0.92518773	      0.14865186	     -4.14168574	      2.76940042	      1.80013260	     -5.51374179	      4.00086651	      0.93128491	     -3.52546444	     -4.93544327	    -12.00063007	    -10.16420804	      8.90050376	     -0.18987949	     -5.89418229	     -0.40102666	      2.65048972
      0.06000000	      1.33967226	     -3.00976010	     -5.13228287	      1.12153195	      0.92519031	      0.14867464	     -4.14116233	      2.76955726	      1.80019903	     -5.51294484	      4.00077972	      0.93133520	     -3.52439181	     -4.93608238	    -12.00064070	    -10.16360842	      8.90054237	     -0.18989017	     -5.89386693	     -0.40060035	      2.65056246
      0.07000000	      1.33948999	     -3.00928374	     -5.13653785	      1.12144516	      0.92519317	      0.14870053	     -4.13793984	      2.77017703	      1.80253669	     -5.50612521	      3.99968853	      0.93173986	     -3.51917648	     -4.93717702	    -12.00026965	    -10.16265312	      8.90032085	     -0.18994208	     -5.90073830	     -0.39928368	      2.64945647
      0.08000000	      1.34187419	     -3.00816946	     -5.13685538	      1.12138932	      0.92519601	      0.14872212	     -4.13756362	      2.77024605	      1.80297668	     -5.50552621	      3.99953884	      0.93177212	     -3.51804679	     -4.93765113	    -12.00018040	    -10.16239742	      8.90028010	     -0.18994990	     -5.90018029	     -0.39850529	      2.64927531
      0.09000000	      1.33700649	     -3.01219103	     -5.13632945	      1.12129953	      0.92519356	      0.14873344	     -4.14358537	      2.77554680	      1.85470394	     -5.47225606	      3.97391893	      0.93479551	     -3.49330016	     -4.94682113	    -12.00238510	    -10.19042266	      8.89826125	     -0.19151373	     -5.90054067	     -0.38716010	      2.63337028
      0.10000000	      1.33941956	     -3.01095890	     -5.13667285	      1.12124647	      0.92519532	      0.14875192	     -4.14294404	      2.77579465	      1.85476179	     -5.47199032	      3.97386088	      0.93479619	     -3.49239553	     -4.94699670	    -12.00232916	    -10.19007262	      8.89830909	     -0.19151476	     -5.90011484	     -0.38636980	      2.63322030
      0.11000000	      1.34181259	     -3.00850188	     -5.13985826	      1.12117096	      0.92519684	      0.14874570	     -4.13877102	      2.77246242	      1.85699181	     -5.47338399	      3.97298411	      0.93448015	     -3.48857144	     -4.94338307	    -12.00111550	    -10.19241730	      8.89837263	     -0.19151290	     -5.90735624	     -0.37967549	      2.62937730
      0.12000000	      1.34437496	     -3.00711547	     -5.13976698	      1.12112354	      0.92519716	      0.14876011	     -4.13808810	      2.77290835	      1.85733298	     -5.47370186	      3.97292957	      0.93444038	     -3.48789853	     -4.94317520	    -12.00101202	    -10.19256821	      8.89838698	     -0.19152335	     -5.90686520	     -0.37901568	      2.62899320
      0.13000000	      1.35595935	     -2.99823180	     -5.13697197	      1.12102426	      0.92520582	      0.14874966	     -4.12691826	      2.76370415	      1.86958969	     -5.50762021	      3.97406805	      0.93142892	     -3.48113067	     -4.93441499	    -11.99498285	    -10.21513006	      8.89860790	     -0.19250910	     -5.92799602	     -0.38275419	      2.60772420
      0.14000000	      1.35843213	     -2.99676669	     -5.13664717	      1.12098110	      0.92520069	      0.14876165	     -4.12604571	      2.76427545	      1.86954637	     -5.50760698	      3.97426124	      0.93137959	     -3.48057872	     -4.93400779	    -11.99504181	    -10.21503164	      8.89865916	     -0.19253039	     -5.92740877	     -0.38194860	      2.60773067
      0.15000000	      1.37028606	     -2.98423571	     -5.13166692	      1.12088232	      0.92520462	      0.14874378	     -4.10741466	      2.75148426	      1.86367812	     -5.55616808	      3.99260116	      0.92601309	     -3.47438807	     -4.92087145	    -11.99064716	    -10.23536876	      8.90181381	     -0.19473474	     -5.94947327	     -0.38999396	      2.59620114
      0.16000000	      1.37272378	     -2.98287422	     -5.13116240	      1.12084079	      0.92519708	      0.14875508	     -4.10650529	      2.75221879	      1.86354643	     -5.55620290	      3.99293350	      0.92595328	     -3.47384219	     -4.92041772	    -11.99075836	    -10.23512754	      8.90187151	     -0.19476644	     -5.94879014	     -0.38933496	      2.59636495
      0.17000000	      1.38298522	     -2.97145463	     -5.12517914	      1.12073708	      0.92519516	      0.14874619	     -4.07945706	      2.74199316	      1.84836915	     -5.61846077	      4.02659477	      0.91862050	     -3.46685636	     -4.90928957	    -11.98390029	    -10.25303019	      8.90568944	     -0.19791739	     -5.97007232	     -0.39977442	      2.59496708
      0.18000000	      1.38525258	     -2.97020413	     -5.12420495	      1.12069322	      0.92519004	      0.14875750	     -4.07844114	      2.74270857	      1.84822207	     -5.61859744	      4.02713013	      0.91851408	     -3.46610026	     -4.90883340	    -11.98412324	    -10.25259613	      8.90576905	     -0.19796677	     -5.96947848	     -0.39918043	      2.59527871
      0.19000000	      1.38796063	     -2.96781003	     -5.11195078	      1.12063066	      0.92518418	      0.14874688	     -4.07293069	      2.74271232	      1.84931793	     -5.62769984	      4.03157158	      0.91742621	     -3.46175421	     -4.90744653	    -11.98499199	    -10.25152622	      8.90639290	     -0.19830636	     -5.97468971	     -0.39890884	      2.59862814
      0.20000000	      1.39605695	     -2.96460023	     -5.11138584	      1.12052125	      0.92518447	      0.14875987	     -4.04741547	      2.74124626	      1.84347535	     -5.68312031	      4.06132442	      0.91016378	     -3.45106433	     -4.90702154	    -11.96978460	    -10.27587111	      8.90774258	     -0.20016646	     -5.99296296	     -0.40259620	      2.59996048
      0.21000000	      1.39699577	     -2.96363257	     -5.10352481	      1.12046776	      0.92517960	      0.14877704	     -4.04382175	      2.74375672	      1.84255156	     -5.68546529	      4.06527968	      0.90914859	     -3.44765299	     -4.90887902	    -11.97159575	    -10.27331913	      8.90862709	     -0.20046062	     -5.99306184	     -0.40584724	      2.60178642
      0.22000000	      1.39931552	     -2.96274324	     -5.10297169	      1.12042226	      0.92517896	      0.14879206	     -4.04285506	      2.74428787	      1.84260012	     -5.68546648	      4.06558807	      0.90906402	     -3.44712113	     -4.90904418	    -11.97157087	    -10.27316603	      8.90866653	     -0.20047685	     -5.99226836	     -0.40548508	      2.60193299
      0.23000000	      1.40176578	     -2.96247783	     -5.09058551	      1.12037267	      0.92518100	      0.14879625	     -4.03962512	      2.74660550	      1.84578191	     -5.69358138	      4.06956417	      0.90772222	     -3.44342304	     -4.91147483	    -11.97072907	    -10.27362871	      8.90867075	     -0.20068583	     -5.99242740	     -0.40641477	      2.60494503
      0.24000000	      1.40418629	     -2.96171473	     -5.09021503	      1.12032582	      0.92518260	      0.14881118	     -4.03856750	      2.74714739	      1.84593913	     -5.69359099	      4.06988374	      0.90762475	     -3.44293536	     -4.91174959	    -11.97052295	    -10.27360741	      8.90865155	     -0.20069974	     -5.99158251	     -0.40602276	      2.60501692
      0.25000000	      1.36959548	     -2.96370163	     -5.07518637	      1.12023468	      0.92512803	      0.14881251	     -3.97480660	      2.75680519	      1.83399343	     -5.73903924	      4.11517900	      0.86555036	     -3.38256701	     -4.92342197	    -11.94885961	    -10.30292656	      8.92039672	     -0.20037674	     -5.95314260	     -0.39945238	      2.59562086
      0.26000000	      1.37242420	     -2.96313351	     -5.06920970	      1.12020036	      0.92513509	      0.14881808	     -3.97538069	      2.75767998	      1.83614035	     -5.74066616	      4.11492045	      0.86535994	     -3.38282192	     -4.92383478	    -11.94951815	    -10.30172619	      8.91971877	     -0.20048212	     -5.94917983	     -0.39886937	      2.59686318
